<?xml version="1.0" standalone="no"?>
<!DOCTYPE svg PUBLIC "-//W3C//DTD SVG 20010904//EN"
 "http://www.w3.org/TR/2001/REC-SVG-20010904/DTD/svg10.dtd">
<svg version="1.0" xmlns="http://www.w3.org/2000/svg"
 width="300.000000pt" height="300.000000pt" viewBox="0 0 300.000000 300.000000"
 preserveAspectRatio="xMidYMid meet">
<metadata>
Created by potrace 1.10, written by Peter Selinger 2001-2011
</metadata>
<g transform="translate(0.000000,300.000000) scale(0.100000,-0.100000)"
fill="#000000" stroke="none">
<path d="M1430 2528 c-25 -4 -56 -12 -70 -18 -14 -5 -37 -12 -52 -14 -27 -4
-148 -55 -158 -66 -3 -3 -25 -18 -50 -34 -58 -38 -147 -128 -187 -191 -18 -27
-36 -54 -40 -60 -21 -26 -46 -94 -67 -183 -18 -70 -21 -248 -7 -296 5 -17 15
-51 22 -76 14 -51 59 -145 84 -175 21 -26 17 -13 -17 51 -58 111 -73 177 -73
329 0 127 3 147 27 213 41 112 84 178 183 277 131 132 269 198 461 220 116 13
302 -28 413 -92 l43 -25 -58 -30 c-33 -16 -75 -42 -94 -57 -32 -25 -37 -26
-62 -13 -50 24 -170 44 -228 37 -262 -30 -454 -210 -485 -456 -9 -72 9 -189
40 -256 l23 -52 -36 -18 c-46 -23 -90 -79 -97 -123 -4 -26 -3 -30 4 -15 6 13
8 -7 6 -60 -2 -49 -7 -80 -14 -80 -6 0 -11 4 -10 9 1 10 -76 91 -115 119 -37
26 -29 12 51 -85 l63 -77 0 -68 c1 -62 2 -66 14 -44 13 24 14 24 20 3 4 -12
18 -30 32 -41 29 -23 17 -31 -49 -32 -23 0 -51 -4 -62 -9 -11 -5 233 -9 574
-9 327 -1 592 2 588 5 -3 4 -42 10 -86 15 -45 4 -85 10 -90 13 -5 3 4 20 20
37 24 25 29 41 30 83 1 28 1 58 0 66 -2 8 6 4 15 -10 10 -14 22 -28 26 -31 5
-3 46 -42 91 -86 103 -100 122 -113 168 -113 74 0 128 77 114 163 -7 37 -22
56 -143 174 -75 73 -130 133 -122 133 7 0 22 -8 33 -17 19 -17 20 -17 9 3 -13
25 -32 34 -71 34 -40 0 -65 22 -58 51 16 67 51 149 63 149 43 0 216 91 202
106 -4 4 -91 -36 -211 -96 -31 -15 -38 -16 -33 -5 3 9 8 43 12 78 7 67 14 88
14 41 0 -16 5 -36 10 -44 13 -20 13 60 0 118 -10 42 -9 45 35 106 25 35 75 96
111 135 36 39 63 71 59 71 -17 0 -136 -90 -187 -141 l-56 -58 -13 31 c-7 18
-28 52 -47 76 l-34 45 23 19 c58 47 117 79 188 102 77 26 200 51 207 43 3 -2
7 -49 11 -103 12 -203 -66 -357 -220 -434 -33 -16 -53 -30 -43 -30 30 0 110
47 159 94 54 52 110 161 124 243 9 48 7 203 -2 231 -11 30 -63 40 -143 26
-126 -21 -239 -68 -315 -131 -27 -22 -29 -22 -52 -5 -14 9 -23 21 -21 27 5 17
106 72 174 95 37 12 107 26 156 31 49 5 92 11 94 14 12 11 -158 4 -223 -10
-38 -8 -71 -15 -72 -15 -2 0 -3 11 -3 23 0 13 -8 31 -17 40 -18 15 -125 66
-153 72 -8 2 -40 10 -70 19 -63 18 -213 26 -280 14z m250 -299 c143 -50 246
-165 286 -320 21 -84 13 -173 -26 -279 -27 -74 -29 -84 -16 -113 17 -40 71
-93 80 -78 10 15 46 14 46 -2 0 -16 -123 -137 -139 -137 -22 0 -11 29 24 63
l34 33 -42 42 c-24 23 -49 42 -56 42 -7 0 5 -19 28 -42 29 -29 39 -44 31 -52
-7 -7 -23 3 -53 32 -39 38 -48 42 -92 42 -39 0 -53 4 -62 19 -10 16 -9 22 10
34 180 118 202 399 41 547 -73 68 -143 95 -244 95 -77 0 -92 -3 -152 -33 -124
-61 -189 -161 -196 -302 -4 -96 18 -174 65 -231 l26 -30 -59 3 -59 3 -28 56
c-83 165 -49 366 83 500 122 124 303 165 470 108z m126 14 c-4 -25 -20 -26
-41 -3 -18 20 -18 20 13 20 23 0 30 -4 28 -17z m-194 -159 c74 -21 151 -87
184 -159 19 -39 23 -66 22 -120 l-1 -70 -7 70 c-6 72 -17 102 -45 125 -12 10
-11 3 5 -31 29 -65 26 -135 -8 -200 -28 -53 -86 -105 -126 -111 -28 -4 -31 20
-4 31 39 15 87 61 110 105 26 50 28 135 5 186 l-16 35 0 -76 c1 -107 -22 -154
-105 -212 -44 -30 -48 -50 -21 -88 14 -18 25 -28 25 -21 0 7 6 12 13 12 44 0
110 57 146 125 12 22 21 35 21 30 0 -22 -38 -107 -51 -116 -8 -5 -11 -9 -8 -9
3 0 -14 -20 -37 -45 l-42 -46 -36 18 c-20 9 -35 22 -32 29 2 6 -3 11 -12 11
-10 0 -66 1 -126 2 l-109 1 -42 44 c-100 104 -101 279 -3 391 42 48 77 70 143
91 55 17 89 17 157 -2z m408 -104 c0 -11 -4 -20 -9 -20 -13 0 -32 26 -24 33
13 14 33 6 33 -13z m-900 -432 c0 -5 -9 -8 -19 -8 -13 0 -19 7 -18 23 1 12 -3
33 -7 47 -5 17 1 12 18 -15 14 -22 26 -43 26 -47z m461 -45 c21 -4 51 -24 82
-55 45 -45 51 -48 102 -48 44 0 57 -4 69 -22 9 -13 13 -31 9 -46 -4 -16 1 -33
16 -52 16 -22 21 -44 21 -90 0 -34 -4 -70 -10 -80 -12 -23 -73 -44 -102 -35
-32 10 -68 45 -68 66 0 16 -20 17 -261 15 l-260 -2 -16 -31 c-27 -57 -102 -64
-155 -16 -15 14 -18 35 -18 144 0 134 7 169 43 208 42 46 68 50 298 51 119 0
232 -3 250 -7z m627 -216 c106 -108 112 -116 112 -155 0 -75 -80 -133 -141
-102 -29 15 -229 211 -229 225 0 10 130 145 140 145 3 0 56 -51 118 -113z
m-518 -160 c0 -7 9 -23 21 -36 12 -12 18 -25 14 -29 -8 -9 -572 -8 -581 0 -3
4 7 23 23 42 l28 36 248 0 c197 0 247 -3 247 -13z"/>
<path d="M1695 2153 c28 -14 59 -33 70 -42 19 -15 19 -15 5 2 -13 18 -101 67
-117 67 -4 -1 15 -12 42 -27z"/>
<path d="M1294 2121 c-66 -47 -120 -122 -138 -191 -4 -14 6 2 22 35 29 61 80
122 137 163 17 12 27 22 24 22 -3 0 -24 -13 -45 -29z"/>
<path d="M1493 2020 c-105 -25 -211 -145 -196 -223 6 -32 23 -26 23 9 0 65 59
132 134 150 28 7 29 6 22 -21 -4 -16 -25 -48 -47 -73 -21 -25 -39 -49 -39 -53
0 -5 -15 -12 -32 -17 -18 -4 -34 -16 -36 -25 -6 -30 58 -1 110 50 59 58 83
117 60 151 -13 20 -14 25 -1 33 15 9 49 12 109 11 28 -1 31 1 15 8 -24 10 -78
11 -122 0z"/>
<path d="M1074 1455 c-49 -38 -64 -89 -64 -213 0 -117 10 -150 33 -118 8 11
19 16 25 13 5 -4 21 -3 34 2 19 8 15 10 -25 10 l-49 1 7 53 c4 28 7 54 8 57 0
3 -3 17 -7 33 -17 59 21 133 89 174 20 12 20 12 0 12 -11 1 -34 -10 -51 -24z"/>
<path d="M1271 1418 c-52 -19 -66 -94 -26 -133 24 -25 27 -25 194 -25 l170 0
20 26 c29 37 27 85 -5 115 -25 23 -30 24 -180 24 -85 0 -163 -3 -173 -7z m349
-48 c0 -6 -68 -10 -185 -10 -117 0 -185 4 -185 10 0 6 68 10 185 10 117 0 185
-4 185 -10z m0 -60 c0 -6 -68 -10 -185 -10 -117 0 -185 4 -185 10 0 6 68 10
185 10 117 0 185 -4 185 -10z"/>
<path d="M1074 1355 c-18 -19 -23 -31 -19 -48 14 -46 68 -62 98 -29 24 26 21
68 -5 86 -31 22 -45 20 -74 -9z m57 -48 c-5 -5 -17 -7 -26 -3 -14 5 -15 9 -5
21 10 12 16 13 27 4 9 -8 10 -16 4 -22z"/>
<path d="M1733 1370 c-53 -21 -31 -110 27 -110 19 0 34 8 44 22 23 32 20 54
-10 77 -30 23 -30 23 -61 11z m43 -41 c9 -16 -10 -31 -30 -23 -13 5 -14 9 -5
20 14 17 25 18 35 3z"/>
<path d="M1088 1191 c33 -31 49 -40 38 -22 -11 18 30 21 265 21 131 0 239 3
239 8 0 4 -116 7 -257 7 -142 0 -271 4 -288 8 l-30 8 33 -30z"/>
<path d="M1787 1214 c-3 -3 -39 -9 -79 -14 -60 -6 -65 -8 -26 -9 33 -1 50 -6
57 -18 9 -16 13 -15 43 15 18 17 28 32 22 32 -6 0 -13 -3 -17 -6z"/>
<path d="M1761 1146 c4 -4 44 -12 72 -15 5 -1 5 -6 1 -12 -4 -7 -1 -10 7 -7 8
3 15 12 17 21 3 14 -5 17 -49 17 -29 0 -50 -2 -48 -4z"/>
<path d="M1990 1264 c0 -13 187 -185 208 -190 26 -7 72 10 72 26 0 7 -7 4 -16
-4 -31 -32 -56 -18 -154 79 -87 86 -110 105 -110 89z"/>
<path d="M2168 2273 c-16 -2 -28 -9 -28 -14 0 -11 -4 -12 50 5 43 14 35 17
-22 9z"/>
<path d="M2040 2225 c-62 -34 -100 -64 -79 -65 9 0 22 7 30 16 7 9 40 29 73
45 34 16 52 29 41 28 -11 0 -40 -11 -65 -24z"/>
<path d="M2256 2014 c-35 -66 -99 -134 -152 -163 -22 -11 -32 -20 -23 -21 21
0 99 51 130 87 25 29 84 142 77 148 -2 2 -16 -21 -32 -51z"/>
<path d="M2267 1793 c-4 -3 -7 -29 -7 -57 0 -56 -22 -158 -46 -221 -9 -22 -11
-35 -5 -30 20 20 61 166 68 240 6 72 4 83 -10 68z"/>
<path d="M709 1514 c-21 -22 -23 -33 -21 -104 3 -97 28 -170 78 -228 36 -42
107 -83 141 -81 11 0 6 5 -12 11 -144 52 -214 195 -174 354 9 33 16 44 26 40
8 -4 25 -9 37 -12 14 -3 33 -27 54 -68 18 -34 46 -76 63 -92 l31 -29 -16 30
c-8 17 -27 58 -42 93 -29 66 -59 95 -110 105 -25 5 -36 1 -55 -19z"/>
<path d="M761 1280 c20 -41 49 -74 87 -97 20 -13 41 -23 46 -23 6 0 -10 13
-35 29 -42 26 -62 46 -97 97 -10 16 -11 15 -1 -6z"/>
<path d="M890 998 c0 -5 17 -9 38 -9 72 -2 177 -6 201 -8 23 -1 23 -1 -8 -30
-17 -16 -31 -39 -31 -50 0 -16 -12 -27 -46 -41 -56 -24 -53 -24 -47 0 7 25
-20 66 -48 75 -12 4 -31 2 -43 -5 -19 -9 -30 -7 -71 14 -66 36 -152 36 -192 2
-28 -24 -28 -25 -31 -165 l-4 -141 30 -29 c34 -34 64 -32 89 5 17 27 41 31 50
9 10 -28 59 -47 86 -34 18 8 30 8 46 -1 18 -9 28 -8 53 8 30 20 31 20 65 0 24
-15 44 -19 68 -15 19 3 37 1 41 -4 3 -5 11 -6 17 -2 7 3 4 -3 -6 -15 -25 -27
-27 -107 -4 -129 15 -15 20 -15 44 -2 15 8 34 22 41 32 18 24 25 22 40 -13 15
-32 46 -40 56 -14 10 25 7 112 -4 119 -18 11 -11 22 18 28 62 12 94 68 96 165
0 34 -5 48 -30 73 -35 35 -95 52 -131 38 -43 -16 -53 -11 -53 25 0 21 -9 42
-24 59 -13 14 -21 28 -18 31 7 8 336 8 355 0 12 -4 10 -10 -9 -29 -26 -26 -27
-36 -24 -210 1 -89 4 -103 26 -133 l25 -32 -24 -23 c-14 -12 -27 -34 -30 -47
-3 -19 -5 -16 -6 12 0 20 -6 40 -11 43 -21 13 -91 12 -105 -1 -7 -8 -18 -14
-24 -14 -6 0 -11 -19 -11 -43 0 -52 23 -70 92 -74 39 -2 48 1 53 18 5 16 10
18 21 8 8 -6 14 -8 14 -4 0 4 8 -3 18 -15 16 -19 24 -22 55 -16 49 9 67 30 67
76 0 40 -16 64 -50 75 -25 8 -25 20 0 47 11 13 20 36 20 54 0 32 1 33 40 32
37 0 40 -3 40 -28 0 -15 9 -39 21 -54 l21 -27 -26 -24 c-14 -13 -26 -34 -27
-47 0 -13 -3 -17 -6 -10 -9 22 -18 13 -18 -18 0 -31 9 -40 18 -17 3 6 6 3 7
-8 2 -48 53 -70 101 -44 17 9 19 17 15 47 -4 20 -2 44 3 52 7 10 5 20 -7 33
-12 13 -13 22 -6 34 16 25 28 26 55 4 23 -18 23 -20 6 -38 -19 -22 -23 -83 -7
-114 15 -28 105 -28 120 0 18 35 12 99 -10 113 -29 18 -25 36 6 30 17 -3 32 2
48 18 23 20 26 21 54 6 36 -19 75 -20 103 -5 15 8 31 6 64 -7 77 -29 153 5
161 72 1 14 7 31 13 37 34 34 -8 119 -73 148 -43 19 -99 18 -112 -2 -13 -22
-54 -7 -84 31 -39 50 -63 51 -111 4 -35 -35 -37 -35 -79 -24 -30 8 -50 8 -73
1 -36 -13 -36 -13 -42 30 -2 21 -15 43 -31 57 -14 13 -24 25 -21 28 2 3 58 7
123 10 262 13 114 19 -442 19 -321 0 -584 -3 -584 -7z m860 -28 c0 -5 -4 -10
-9 -10 -5 0 -23 -12 -40 -26 l-31 -26 -34 29 c-19 15 -35 31 -35 36 -1 4 33 7
74 7 43 0 75 -4 75 -10z m-931 -54 c62 -33 67 -120 9 -167 -20 -16 -20 -16 11
-59 37 -51 39 -70 7 -70 -17 0 -33 14 -60 55 -49 74 -74 75 -78 3 -3 -49 -5
-53 -28 -53 l-25 0 -3 140 c-1 76 0 145 2 152 7 18 129 17 165 -1z m361 -139
l0 -154 -66 -1 c-61 0 -70 2 -95 28 -55 54 -30 159 41 175 16 3 39 1 50 -5 21
-11 22 -10 20 37 -4 70 -2 73 25 73 l25 0 0 -153z m452 103 c18 -27 35 -50 38
-50 3 0 20 23 38 51 30 45 36 50 65 47 l32 -3 0 -150 0 -150 -25 0 -25 0 0
108 c0 59 -2 107 -5 107 -3 0 -21 -27 -40 -60 -19 -33 -37 -60 -40 -60 -3 0
-21 28 -40 61 l-35 61 -3 -112 -3 -111 -27 3 -27 3 -3 130 c-3 162 -1 175 38
175 25 0 35 -9 62 -50z m-672 11 c7 -15 6 -23 -6 -35 -12 -12 -20 -13 -35 -6
-22 12 -25 30 -7 48 18 18 36 15 48 -7z m1158 -33 c2 -19 10 -28 25 -30 14 -2
23 -11 25 -25 3 -19 -1 -23 -23 -23 -25 0 -26 -2 -23 -52 3 -46 6 -53 28 -58
34 -8 34 -44 1 -48 -57 -8 -98 47 -88 118 4 34 2 39 -17 42 -29 4 -29 42 1 46
14 2 20 8 16 18 -9 24 5 46 29 42 16 -2 24 -11 26 -30z m-1163 -133 c0 -100 0
-100 -25 -100 -25 0 -25 1 -28 89 -3 105 0 118 30 114 22 -3 23 -7 23 -103z
m415 78 c16 -16 33 -43 36 -60 l7 -33 -77 0 c-42 0 -76 -4 -76 -9 0 -20 31
-32 76 -29 38 2 49 -1 52 -13 4 -19 -37 -39 -82 -39 -42 0 -81 31 -96 75 -10
30 -9 41 7 72 32 67 101 82 153 36z m621 -3 c28 -28 30 -33 27 -102 -3 -67 -5
-73 -25 -76 -14 -2 -23 2 -23 9 0 10 -3 10 -12 1 -19 -19 -76 -14 -98 8 -49
49 -8 110 76 110 32 0 35 2 23 16 -10 12 -24 15 -56 10 -51 -7 -66 9 -33 36
35 28 86 23 121 -12z m349 15 c34 -18 50 -43 50 -79 0 -24 -2 -25 -77 -28 -75
-3 -76 -3 -58 -22 15 -14 28 -17 61 -12 29 4 46 1 54 -8 17 -21 -25 -46 -76
-46 -36 0 -47 5 -74 37 -28 32 -32 41 -27 77 4 29 15 49 37 69 34 30 67 34
110 12z m-1081 -223 c36 -17 39 -20 25 -34 -14 -14 -20 -13 -61 10 -33 18 -41
27 -31 33 18 12 20 11 67 -9z m-19 -57 c0 -10 -11 -15 -35 -15 -19 0 -35 -4
-35 -10 0 -5 14 -10 30 -10 17 0 30 -4 30 -10 0 -5 -11 -10 -24 -10 -18 0 -26
-6 -28 -22 -2 -12 -9 -23 -15 -26 -9 -3 -13 12 -13 51 0 29 3 57 7 60 3 4 24
7 45 7 27 0 38 -4 38 -15z m70 -45 c0 -33 -4 -60 -10 -60 -6 0 -10 27 -10 60
0 33 4 60 10 60 6 0 10 -27 10 -60z m112 28 l27 -33 1 33 c0 17 5 32 10 32 6
0 10 -27 10 -60 0 -33 -3 -60 -7 -60 -5 0 -19 17 -33 37 l-25 37 -3 -37 c-5
-60 -22 -42 -22 23 0 33 3 60 8 60 4 0 19 -14 34 -32z m203 7 c14 -13 25 -28
25 -33 0 -23 -37 -51 -70 -54 -35 -3 -35 -3 -38 41 -2 24 -1 50 2 57 9 22 55
16 81 -11z m185 10 c0 -10 -10 -15 -30 -15 -16 0 -30 -4 -30 -10 0 -5 9 -10
20 -10 11 0 20 -4 20 -10 0 -5 -12 -10 -26 -10 -14 0 -23 -4 -19 -10 3 -5 20
-10 36 -10 20 0 29 -4 27 -12 -3 -8 -21 -13 -44 -13 -39 0 -39 0 -42 44 -5 62
1 71 48 71 29 0 40 -4 40 -15z m144 -1 c18 -18 21 -50 6 -59 -8 -5 -8 -11 0
-20 7 -8 7 -16 2 -19 -6 -3 -15 1 -22 9 -16 19 -40 19 -40 0 0 -8 -4 -15 -9
-15 -9 0 -20 108 -12 116 11 10 61 2 75 -12z"/>
<path d="M710 830 l0 -50 39 0 c29 0 44 6 55 21 27 38 -5 79 -61 79 -33 0 -33
0 -33 -50z"/>
<path d="M1057 762 c-31 -34 -11 -92 32 -92 41 0 57 63 23 93 -24 22 -35 21
-55 -1z"/>
<path d="M1272 768 c-20 -20 -14 -24 33 -23 25 0 45 2 45 6 0 12 -26 29 -45
29 -12 0 -26 -5 -33 -12z"/>
<path d="M1893 694 c-3 -8 -1 -20 6 -27 15 -15 65 3 69 26 3 14 -4 17 -33 17
-23 0 -38 -5 -42 -16z"/>
<path d="M2263 773 c-7 -2 -13 -10 -13 -17 0 -10 43 -13 89 -7 2 1 -2 8 -9 16
-12 15 -43 18 -67 8z"/>
<path d="M1570 490 c0 -27 3 -31 23 -28 16 2 22 10 22 28 0 18 -6 26 -22 28
-20 3 -23 -1 -23 -28z"/>
<path d="M1900 505 c0 -11 7 -15 23 -13 12 2 22 8 22 13 0 6 -10 11 -22 13
-16 2 -23 -2 -23 -13z"/>
</g>
</svg>
